# xmcd
#
# Track frame offsets: 
#        150
#        24878
#        48040
#        65973
#        89181
#        113856
#        138840
#        166560
#        192584
#        217551
#
# Disc length: 3198 seconds
#
# Revision: 0
# Processed by: cddbd v1.5.2PL0 Copyright (c) Steve Scherf et al.
# Submitted via: ExactAudioCopy v1.0b3
#
DISCID=810c7c0a
DTITLE=Various Artist - Tinh ca Tran Thien Thanh 6
DYEAR=2007
DGENRE=
TTITLE0=Ha Vy - Giay phut ta tu
TTITLE1=Manh Quynh - Tinh thu cua linh
TTITLE2=Phi Nhung, Dam Vinh Hung - Hoa hoc tro
TTITLE3=Thien Trang - Hai sac hoa tigon
TTITLE4=Nhat Truong - Nguoi o lai Charlie
TTITLE5=Yen Vy - Chuyen hen ho
TTITLE6=Tuan Vu - Hoa trinh nu
TTITLE7=song ca - Chiec ao ba ba
TTITLE8=Thai Chau - Mua dong cua anh
TTITLE9=Nhu Mai - Nguoi yeu cua linh
EXTD=
EXTT0=
EXTT1=
EXTT2=
EXTT3=
EXTT4=
EXTT5=
EXTT6=
EXTT7=
EXTT8=
EXTT9=
PLAYORDER=
